<?xml version="1.0" encoding="utf-8"?>
<!-- Generator: Adobe Illustrator 22.1.0, SVG Export Plug-In . SVG Version: 6.00 Build 0)  -->
<svg version="1.1" id="Layer_1" xmlns="http://www.w3.org/2000/svg" xmlns:xlink="http://www.w3.org/1999/xlink" x="0px" y="0px"
	 viewBox="0 0 466.3 252.3" style="enable-background:new 0 0 466.3 252.3;" xml:space="preserve">
<metadata><?xpacket begin="﻿" id="W5M0MpCehiHzreSzNTczkc9d"?>
<x:xmpmeta xmlns:x="adobe:ns:meta/" x:xmptk="Adobe XMP Core 5.6-c143 79.161356, 2017/09/07-01:11:22        ">
   <rdf:RDF xmlns:rdf="http://www.w3.org/1999/02/22-rdf-syntax-ns#">
      <rdf:Description rdf:about=""/>
   </rdf:RDF>
</x:xmpmeta>
                                                                                                    
                                                                                                    
                                                                                                    
                                                                                                    
                                                                                                    
                                                                                                    
                                                                                                    
                                                                                                    
                                                                                                    
                                                                                                    
                                                                                                    
                                                                                                    
                                                                                                    
                                                                                                    
                                                                                                    
                                                                                                    
                                                                                                    
                                                                                                    
                                                                                                    
                                                                                                    
                           
<?xpacket end="w"?></metadata>
<style type="text/css">
	.st0{fill:#FFFFFF;}
	.st1{fill:#157BFA;}
</style>
<g>
	<path class="st0" d="M235.6,18.8h12.9l-18,207.6h-12.9L235.6,18.8z"/>
	<g>
		<path class="st1" d="M112.5,157l25-61.3v-49h-6.3v49h-18.7V50.3c0-11.9,7-17.5,22.1-17.5c14.8,0,21.6,5.6,21.6,17.5v46.6l-25,61.3
			v39h25v13.8h-43.7V157z"/>
		<path class="st1" d="M165.4,194.5V50.3c0-11.9,7-17.5,22.1-17.5c14.8,0,21.6,5.6,21.6,17.5v144.2c0,11.9-6.8,17.5-21.6,17.5
			C172.5,212,165.4,206.4,165.4,194.5z M190.4,198.2V46.7h-6.3v151.5H190.4z"/>
		<path class="st1" d="M257,157l25-61.3v-49h-6.3v49H257V50.3c0-11.9,7-17.5,22.1-17.5c14.8,0,21.6,5.6,21.6,17.5v46.6l-25,61.3v39
			h25v13.8H257V157z"/>
		<path class="st1" d="M309.9,194.5V50.3c0-11.9,7-17.5,22.1-17.5c14.8,0,21.6,5.6,21.6,17.5v144.2c0,11.9-6.8,17.5-21.6,17.5
			C316.9,212,309.9,206.4,309.9,194.5z M334.9,198.2V46.7h-6.3v151.5H334.9z"/>
	</g>
</g>
</svg>
