<?xml version="1.0" encoding="utf-8"?>
<!-- Generator: Adobe Illustrator 22.1.0, SVG Export Plug-In . SVG Version: 6.00 Build 0)  -->
<svg version="1.1" id="Layer_1" xmlns="http://www.w3.org/2000/svg" xmlns:xlink="http://www.w3.org/1999/xlink" x="0px" y="0px"
	 viewBox="0 0 576 576" style="enable-background:new 0 0 576 576;" xml:space="preserve">
<metadata><?xpacket begin="﻿" id="W5M0MpCehiHzreSzNTczkc9d"?>
<x:xmpmeta xmlns:x="adobe:ns:meta/" x:xmptk="Adobe XMP Core 5.6-c143 79.161356, 2017/09/07-01:11:22        ">
   <rdf:RDF xmlns:rdf="http://www.w3.org/1999/02/22-rdf-syntax-ns#">
      <rdf:Description rdf:about=""/>
   </rdf:RDF>
</x:xmpmeta>
                                                                                                    
                                                                                                    
                                                                                                    
                                                                                                    
                                                                                                    
                                                                                                    
                                                                                                    
                                                                                                    
                                                                                                    
                                                                                                    
                                                                                                    
                                                                                                    
                                                                                                    
                                                                                                    
                                                                                                    
                                                                                                    
                                                                                                    
                                                                                                    
                                                                                                    
                                                                                                    
                           
<?xpacket end="w"?></metadata>
<style type="text/css">
	.st0{fill:#FFFFFF;}
</style>
<g>
	<g>
		<path class="st0" d="M89,222.6c-11.1-9.3-12.8-27.5,1.1-47.1c18.4-25.8,62.7-50.2,75.8-50.2c3.6,0,5.6,1.9,8.3,6.4
			c3.1,5.7,2.4,8.7,1.4,9.1c-31.5,13.8-58.4,28.5-73.9,51.1c-5.9,8.6-7.7,16.6-7,22.3c12.6,0.6,35-8,47.4-20.1
			c-2.9,0.9-6.9,1.9-11.1,3c-3.1,0.7-5.3,0.7-6.3-1.3c-1.3-2.4-2.7-6.1-3.1-8.6c-0.3-1.7-0.1-2.4,1.6-2.9c6.3-1.4,34.3-6,42.7-6.7
			c1.3-0.1,1.3,1.4,0.1,2.3c-3.1,2.3-5.7,6.4-7.6,7.9c-2.3,1.6-6.6,3.4-11.7,5c-0.1,2.7-0.6,5.9-1.1,8.7c-0.6,2.6-1.4,5.3-5.4,9.8
			c-6.7,7.1-21.3,18.8-34.3,18.8C98.6,230.2,92.5,227.6,89,222.6z"/>
		<path class="st0" d="M210.9,229.4c-5.6-8.4-13.6-23-22-40.5c-7.1,9.7-15,20.3-23.3,31.1c-2,2.7-4,4.1-8.3,4.7
			c-5.4,0.4-13,2.4-15.3,2.4c-1.1,0-1.3-1-0.6-2.1c14.1-22.5,32.8-49.4,53.8-78.6c-0.1-3.7-1.7-9-3.3-13c-0.6-1.4,0-3,2.7-3.4
			c7.4-1.4,13.8-2.6,21.4-2.6c13.4,0,23,2.6,29,9.7c3,3.4,6.1,8.6,6.1,13.3c0,15.8-15.3,29.5-40.4,39.5c2.9,7,5.4,13.6,8,20.3
			c1,2.6,1.9,4.9,1.9,7c0,3.4-2,5.6-5.7,10.8C213.5,230.2,211.9,230.8,210.9,229.4z M197.5,176.7c23.1-7.1,41.2-19.8,43.8-32.8
			c-2.4-1.7-6.1-2.6-10.6-2.6c-5,0-11.6,0.7-18,2.4c1.6,2.9,2.3,6,1,8.1C209.8,158.6,204.2,167.2,197.5,176.7z"/>
		<path class="st0" d="M231.5,224.4c-3.1-4.3-6-6.9-3.1-12.3c9.3-18,29.1-45,45-66.5l-1.3,0.1c-1.9,0.1-3.1-0.4-4.3-1.4
			c-1.7-1.9-3.6-5.8-4.1-8.7c-0.1-1.1,0.1-1.6,1.4-1.7c5.9-1,12.1-1.9,18.7-2.6c1.9-2.6,3.6-4.9,5-7c2.1-2.9,4-3,5.4-2.1
			c2.6,1.7,4.7,5.1,7.7,7.4c14.3-1.3,29.3-2,42.8-2.3c0.7,0,1,0.1,1,0.7c0,1-0.6,3.1-1.4,4.4c-1,1.4-2.1,2-5.1,2.6
			c-11.3,2.1-26.3,4.7-41.2,7c-5.4,8.4-12.4,18.8-20,29.8c11.8-1.1,24.8-2.3,33.4-2.9c1,0,1.3,0.4,1,1c-0.6,1.7-2.4,4.4-3.3,5.3
			c-2,2-3.6,2.6-7.1,3.3c-8.3,1.7-21.4,4-32.5,5.7l-21.3,31c14.6-2,29.8-4.1,44.1-5.7c1.9-0.3,2.4,0.1,2.4,0.9
			c0,0.7-0.9,2.1-1.3,4.6c-0.3,1.4-0.4,1.9-4,3.1c-10.4,3.7-28.1,8.6-40.1,10.8c-3.7,0.7-7.4,1.1-9.1,1.1
			C235.5,230.2,234.1,227.9,231.5,224.4z"/>
		<path class="st0" d="M354.6,228.4c6-13.8,11.7-28.1,16.8-41.7c-10.6,3-23.8,6.6-37.4,10c-7.1,8.6-13.6,17.1-19.3,26.1
			c-2,3.3-2.9,3.8-4.4,3.8c-2.3,0-5.6-2.7-8.8-6.1c-2.4-2.4-4.1-7.4,2.4-15.8c19.1-24.7,50.4-55.8,72.9-75.8
			c5.3-4.6,7.7-5.7,9.3-5.7c2,0,4.3,1.7,11.4,3.7c5.7,1.6,5.4,5,1.9,15.7c-3,9-6.6,19.1-10.7,30c0.1,1.9,0.3,3.6,0.3,5.6
			c0,1.9-0.1,2.9-4.3,4.4c-3.4,8.6-7.3,17.6-11.7,26.8c-4.7,9.8-8.4,17-11.1,19.6c-0.7,0.6-4.7,1.1-5.9,1.1
			C354.8,230.2,353.8,230.2,354.6,228.4z M345.8,184.2c9.7-2.9,20.1-6.1,30.1-9.4c4-11.3,7.6-21.8,10.6-31
			c-15.3,14-29.1,27.3-41.4,40.5L345.8,184.2z"/>
		<path class="st0" d="M382.8,228.4c11.4-19,32.5-50.5,55.7-84.3c-10.1,1.6-20.4,3.3-29.5,4.8c-2.4,0.4-2.9-0.1-2.3-1.3
			c1.9-4.1,2.9-7.6,4.4-9.6c2.4-3,4.6-4.8,11-5.8c5-0.9,15.4-2,26.4-3c1.3-1.9,2.1-3.3,2.9-4.4c1.4-2.1,2.1-2.3,4.7-1
			c1.9,1,4.4,2.6,7,4.3c6.8-0.4,13.1-0.7,17.8-0.7c3.9,0,6.3,1.3,9.1,3.1c3.4,2.3,4.7,3.1,4.7,4.1c0,0.6-0.6,1-1.7,1.1
			c-5.3,0.7-16,2.3-28.8,4.3c-9.4,15.1-38.7,58.4-57.8,83.3c-3.4,4.4-5.9,5.1-9.3,5.1c-7.1,0.3-10.6,1.6-13.4,1.6
			C382.8,230.2,381.9,229.9,382.8,228.4z"/>
	</g>
	<g>
		<path class="st0" d="M78.9,236.3h33.5l5.7,137.2c0.6,13,1,25.7,1.1,39.3h0.6c0.1-13.7,0.6-26.4,1.1-39.3l5.7-137.2H160v203.6
			h-17.3l-0.4-153.5c0-8.5,0-16.3,0.1-25h-0.7c-0.6,8.6-1.1,16.5-1.5,25l-8.1,153.5h-25.4l-8.1-153.5c-0.4-8.5-1-16.3-1.5-25h-0.7
			c0.1,8.6,0.1,16.5,0.1,25l-0.4,153.5H78.9V236.3z"/>
		<path class="st0" d="M198.5,408.4h-8.2l-0.7,31.5h-21.5l9.2-203.6h34.2l9.2,203.6h-21.5L198.5,408.4z M197.9,389.7l-2.8-120.1
			c-0.1-4.3-0.3-7.8-0.3-13h-1c0,5.2-0.1,8.6-0.3,13l-2.8,120.1H197.9z"/>
		<path class="st0" d="M228.8,420.9V255.3c0-13.7,8.1-20.1,25.4-20.1c17,0,24.8,6.4,24.8,20.1v61.4h-21.5v-65.5h-7.3v174h7.3v-65.5
			H279v61.4c0,13.7-7.8,20.1-24.8,20.1C236.8,441,228.8,434.6,228.8,420.9z"/>
		<path class="st0" d="M289.6,236.3H311v92h7v-92h21.5v203.6H318v-94.3h-7v94.3h-21.5V236.3z"/>
		<path class="st0" d="M350.1,236.3h21.5v203.6h-21.5V236.3z"/>
		<path class="st0" d="M382.1,236.3h31.2l8.1,154.5c0.4,8.8,0.7,17.6,1.1,26.5h1c-0.1-8.9-0.1-17.7-0.1-26.5l-0.3-154.5H439v203.6
			h-31L400,285.4c-0.6-8.8-0.7-17.6-1.1-26.5h-1c0.1,8.9,0.1,17.7,0.1,26.5l0.3,154.5h-16.2V236.3z"/>
		<path class="st0" d="M449.6,236.3h36.5v15.9h-15.1v77h15.1v15.6h-15.1V424h15.1v15.9h-36.5V236.3z"/>
	</g>
</g>
</svg>
